{
    "asset" : {
        "generator" : "Khronos glTF Blender I/O v3.3.27",
        "version" : "2.0"
    },
    "scene" : 0,
    "scenes" : [
        {
            "name" : "Scene",
            "nodes" : [
                0,
                8
            ]
        }
    ],
    "nodes" : [
        {
            "name" : "Empty",
            "rotation" : [
                0.7071068286895752,
                0,
                0,
                0.7071067094802856
            ],
            "translation" : [
                0.9306001663208008,
                0.3448416292667389,
                -8.792469024658203
            ]
        },
        {
            "mesh" : 0,
            "name" : "Body"
        },
        {
            "mesh" : 1,
            "name" : "Cube.001"
        },
        {
            "mesh" : 2,
            "name" : "Cube.002"
        },
        {
            "mesh" : 3,
            "name" : "Cube.003"
        },
        {
            "mesh" : 4,
            "name" : "Cylinder",
            "translation" : [
                0,
                0,
                0.006591718178242445
            ]
        },
        {
            "mesh" : 5,
            "name" : "Minus.001"
        },
        {
            "children" : [
                6
            ],
            "mesh" : 6,
            "name" : "Minus",
            "translation" : [
                0,
                0,
                -0.05729587376117706
            ]
        },
        {
            "children" : [
                1,
                2,
                3,
                4,
                5,
                7
            ],
            "name" : "Wallet",
            "rotation" : [
                -0.007303015794605017,
                0.09336014837026596,
                -0.45231083035469055,
                0.8869303464889526
            ],
            "translation" : [
                0,
                1.238768458366394,
                0
            ]
        }
    ],
    "materials" : [
        {
            "doubleSided" : true,
            "name" : "Material.001",
            "pbrMetallicRoughness" : {
                "baseColorFactor" : [
                    0.007775301579385996,
                    0.007775301579385996,
                    0.007775301579385996,
                    1
                ],
                "metallicFactor" : 0,
                "roughnessFactor" : 0.5
            }
        },
        {
            "doubleSided" : true,
            "emissiveFactor" : [
                0.03548165050258323,
                0.03548165050258323,
                0.03548165050258323
            ],
            "name" : "Material.002",
            "pbrMetallicRoughness" : {
                "baseColorFactor" : [
                    0.015995409339666367,
                    0.015995409339666367,
                    0.015995409339666367,
                    1
                ],
                "metallicFactor" : 0,
                "roughnessFactor" : 0.865517258644104
            }
        },
        {
            "doubleSided" : true,
            "name" : "Material.003",
            "pbrMetallicRoughness" : {
                "baseColorFactor" : [
                    0.02243299037218094,
                    0.025194348767399788,
                    0.025394557043910027,
                    1
                ],
                "metallicFactor" : 0,
                "roughnessFactor" : 0.5
            }
        },
        {
            "doubleSided" : true,
            "name" : "Material.004",
            "pbrMetallicRoughness" : {
                "baseColorFactor" : [
                    0.4261488616466522,
                    0.4261488616466522,
                    0.4261488616466522,
                    1
                ],
                "metallicFactor" : 0,
                "roughnessFactor" : 0.5
            }
        }
    ],
    "meshes" : [
        {
            "name" : "Cube.001",
            "primitives" : [
                {
                    "attributes" : {
                        "POSITION" : 0,
                        "NORMAL" : 1,
                        "TEXCOORD_0" : 2
                    },
                    "indices" : 3,
                    "material" : 0
                },
                {
                    "attributes" : {
                        "POSITION" : 4,
                        "NORMAL" : 5,
                        "TEXCOORD_0" : 6
                    },
                    "indices" : 7,
                    "material" : 1
                }
            ]
        },
        {
            "name" : "Cube.002",
            "primitives" : [
                {
                    "attributes" : {
                        "POSITION" : 8,
                        "NORMAL" : 9,
                        "TEXCOORD_0" : 10
                    },
                    "indices" : 11,
                    "material" : 2
                }
            ]
        },
        {
            "name" : "Cube.003",
            "primitives" : [
                {
                    "attributes" : {
                        "POSITION" : 12,
                        "NORMAL" : 13,
                        "TEXCOORD_0" : 14
                    },
                    "indices" : 15,
                    "material" : 2
                }
            ]
        },
        {
            "name" : "Cube.004",
            "primitives" : [
                {
                    "attributes" : {
                        "POSITION" : 16,
                        "NORMAL" : 17,
                        "TEXCOORD_0" : 18
                    },
                    "indices" : 15,
                    "material" : 2
                }
            ]
        },
        {
            "name" : "Cylinder",
            "primitives" : [
                {
                    "attributes" : {
                        "POSITION" : 19,
                        "NORMAL" : 20,
                        "TEXCOORD_0" : 21
                    },
                    "indices" : 22,
                    "material" : 3
                }
            ]
        },
        {
            "name" : "Cube.008",
            "primitives" : [
                {
                    "attributes" : {
                        "POSITION" : 23,
                        "NORMAL" : 24,
                        "TEXCOORD_0" : 25
                    },
                    "indices" : 26,
                    "material" : 0
                }
            ]
        },
        {
            "name" : "Cube.007",
            "primitives" : [
                {
                    "attributes" : {
                        "POSITION" : 27,
                        "NORMAL" : 28,
                        "TEXCOORD_0" : 29
                    },
                    "indices" : 30,
                    "material" : 0
                }
            ]
        }
    ],
    "accessors" : [
        {
            "bufferView" : 0,
            "componentType" : 5126,
            "count" : 1261,
            "max" : [
                0.8687989711761475,
                0.3688265383243561,
                0.1128472238779068
            ],
            "min" : [
                -0.8308306932449341,
                -0.39160749316215515,
                -0.1128472313284874
            ],
            "type" : "VEC3"
        },
        {
            "bufferView" : 1,
            "componentType" : 5126,
            "count" : 1261,
            "type" : "VEC3"
        },
        {
            "bufferView" : 2,
            "componentType" : 5126,
            "count" : 1261,
            "type" : "VEC2"
        },
        {
            "bufferView" : 3,
            "componentType" : 5123,
            "count" : 5652,
            "type" : "SCALAR"
        },
        {
            "bufferView" : 4,
            "componentType" : 5126,
            "count" : 32,
            "max" : [
                0.12297040224075317,
                0.2504691779613495,
                0.09800985455513
            ],
            "min" : [
                -0.6233514547348022,
                -0.27571362257003784,
                0.09800985455513
            ],
            "type" : "VEC3"
        },
        {
            "bufferView" : 5,
            "componentType" : 5126,
            "count" : 32,
            "type" : "VEC3"
        },
        {
            "bufferView" : 6,
            "componentType" : 5126,
            "count" : 32,
            "type" : "VEC2"
        },
        {
            "bufferView" : 7,
            "componentType" : 5123,
            "count" : 90,
            "type" : "SCALAR"
        },
        {
            "bufferView" : 8,
            "componentType" : 5126,
            "count" : 288,
            "max" : [
                0.7687270641326904,
                0.4168233871459961,
                0.09121611714363098
            ],
            "min" : [
                0.37411701679229736,
                0.32964617013931274,
                -0.0912160724401474
            ],
            "type" : "VEC3"
        },
        {
            "bufferView" : 9,
            "componentType" : 5126,
            "count" : 288,
            "type" : "VEC3"
        },
        {
            "bufferView" : 10,
            "componentType" : 5126,
            "count" : 288,
            "type" : "VEC2"
        },
        {
            "bufferView" : 11,
            "componentType" : 5123,
            "count" : 1284,
            "type" : "SCALAR"
        },
        {
            "bufferView" : 12,
            "componentType" : 5126,
            "count" : 216,
            "max" : [
                -0.34845489263534546,
                -0.33989062905311584,
                0.04804901033639908
            ],
            "min" : [
                -0.5134243369102478,
                -0.4270678460597992,
                -0.04804907739162445
            ],
            "type" : "VEC3"
        },
        {
            "bufferView" : 13,
            "componentType" : 5126,
            "count" : 216,
            "type" : "VEC3"
        },
        {
            "bufferView" : 14,
            "componentType" : 5126,
            "count" : 216,
            "type" : "VEC2"
        },
        {
            "bufferView" : 15,
            "componentType" : 5123,
            "count" : 900,
            "type" : "SCALAR"
        },
        {
            "bufferView" : 16,
            "componentType" : 5126,
            "count" : 216,
            "max" : [
                -0.561646580696106,
                -0.33989062905311584,
                0.04804901033639908
            ],
            "min" : [
                -0.7266160249710083,
                -0.4270678460597992,
                -0.04804907739162445
            ],
            "type" : "VEC3"
        },
        {
            "bufferView" : 17,
            "componentType" : 5126,
            "count" : 216,
            "type" : "VEC3"
        },
        {
            "bufferView" : 18,
            "componentType" : 5126,
            "count" : 216,
            "type" : "VEC2"
        },
        {
            "bufferView" : 19,
            "componentType" : 5126,
            "count" : 1609,
            "max" : [
                0.7892431020736694,
                0.2719254195690155,
                0.12063758075237274
            ],
            "min" : [
                0.22008003294467926,
                -0.2972376346588135,
                0.06755184382200241
            ],
            "type" : "VEC3"
        },
        {
            "bufferView" : 20,
            "componentType" : 5126,
            "count" : 1609,
            "type" : "VEC3"
        },
        {
            "bufferView" : 21,
            "componentType" : 5126,
            "count" : 1609,
            "type" : "VEC2"
        },
        {
            "bufferView" : 22,
            "componentType" : 5123,
            "count" : 7296,
            "type" : "SCALAR"
        },
        {
            "bufferView" : 23,
            "componentType" : 5126,
            "count" : 40,
            "max" : [
                0.6577961444854736,
                -0.009904913604259491,
                0.19054225087165833
            ],
            "min" : [
                0.34693029522895813,
                -0.021370090544223785,
                0.09682779759168625
            ],
            "type" : "VEC3"
        },
        {
            "bufferView" : 24,
            "componentType" : 5126,
            "count" : 40,
            "type" : "VEC3"
        },
        {
            "bufferView" : 25,
            "componentType" : 5126,
            "count" : 40,
            "type" : "VEC2"
        },
        {
            "bufferView" : 26,
            "componentType" : 5123,
            "count" : 84,
            "type" : "SCALAR"
        },
        {
            "bufferView" : 27,
            "componentType" : 5126,
            "count" : 52,
            "max" : [
                0.5080958008766174,
                0.13979540765285492,
                0.19054225087165833
            ],
            "min" : [
                0.49663063883781433,
                -0.1710704118013382,
                0.09682779759168625
            ],
            "type" : "VEC3"
        },
        {
            "bufferView" : 28,
            "componentType" : 5126,
            "count" : 52,
            "type" : "VEC3"
        },
        {
            "bufferView" : 29,
            "componentType" : 5126,
            "count" : 52,
            "type" : "VEC2"
        },
        {
            "bufferView" : 30,
            "componentType" : 5123,
            "count" : 84,
            "type" : "SCALAR"
        }
    ],
    "bufferViews" : [
        {
            "buffer" : 0,
            "byteLength" : 15132,
            "byteOffset" : 0,
            "target" : 34962
        },
        {
            "buffer" : 0,
            "byteLength" : 15132,
            "byteOffset" : 15132,
            "target" : 34962
        },
        {
            "buffer" : 0,
            "byteLength" : 10088,
            "byteOffset" : 30264,
            "target" : 34962
        },
        {
            "buffer" : 0,
            "byteLength" : 11304,
            "byteOffset" : 40352,
            "target" : 34963
        },
        {
            "buffer" : 0,
            "byteLength" : 384,
            "byteOffset" : 51656,
            "target" : 34962
        },
        {
            "buffer" : 0,
            "byteLength" : 384,
            "byteOffset" : 52040,
            "target" : 34962
        },
        {
            "buffer" : 0,
            "byteLength" : 256,
            "byteOffset" : 52424,
            "target" : 34962
        },
        {
            "buffer" : 0,
            "byteLength" : 180,
            "byteOffset" : 52680,
            "target" : 34963
        },
        {
            "buffer" : 0,
            "byteLength" : 3456,
            "byteOffset" : 52860,
            "target" : 34962
        },
        {
            "buffer" : 0,
            "byteLength" : 3456,
            "byteOffset" : 56316,
            "target" : 34962
        },
        {
            "buffer" : 0,
            "byteLength" : 2304,
            "byteOffset" : 59772,
            "target" : 34962
        },
        {
            "buffer" : 0,
            "byteLength" : 2568,
            "byteOffset" : 62076,
            "target" : 34963
        },
        {
            "buffer" : 0,
            "byteLength" : 2592,
            "byteOffset" : 64644,
            "target" : 34962
        },
        {
            "buffer" : 0,
            "byteLength" : 2592,
            "byteOffset" : 67236,
            "target" : 34962
        },
        {
            "buffer" : 0,
            "byteLength" : 1728,
            "byteOffset" : 69828,
            "target" : 34962
        },
        {
            "buffer" : 0,
            "byteLength" : 1800,
            "byteOffset" : 71556,
            "target" : 34963
        },
        {
            "buffer" : 0,
            "byteLength" : 2592,
            "byteOffset" : 73356,
            "target" : 34962
        },
        {
            "buffer" : 0,
            "byteLength" : 2592,
            "byteOffset" : 75948,
            "target" : 34962
        },
        {
            "buffer" : 0,
            "byteLength" : 1728,
            "byteOffset" : 78540,
            "target" : 34962
        },
        {
            "buffer" : 0,
            "byteLength" : 19308,
            "byteOffset" : 80268,
            "target" : 34962
        },
        {
            "buffer" : 0,
            "byteLength" : 19308,
            "byteOffset" : 99576,
            "target" : 34962
        },
        {
            "buffer" : 0,
            "byteLength" : 12872,
            "byteOffset" : 118884,
            "target" : 34962
        },
        {
            "buffer" : 0,
            "byteLength" : 14592,
            "byteOffset" : 131756,
            "target" : 34963
        },
        {
            "buffer" : 0,
            "byteLength" : 480,
            "byteOffset" : 146348,
            "target" : 34962
        },
        {
            "buffer" : 0,
            "byteLength" : 480,
            "byteOffset" : 146828,
            "target" : 34962
        },
        {
            "buffer" : 0,
            "byteLength" : 320,
            "byteOffset" : 147308,
            "target" : 34962
        },
        {
            "buffer" : 0,
            "byteLength" : 168,
            "byteOffset" : 147628,
            "target" : 34963
        },
        {
            "buffer" : 0,
            "byteLength" : 624,
            "byteOffset" : 147796,
            "target" : 34962
        },
        {
            "buffer" : 0,
            "byteLength" : 624,
            "byteOffset" : 148420,
            "target" : 34962
        },
        {
            "buffer" : 0,
            "byteLength" : 416,
            "byteOffset" : 149044,
            "target" : 34962
        },
        {
            "buffer" : 0,
            "byteLength" : 168,
            "byteOffset" : 149460,
            "target" : 34963
        }
    ],
    "buffers" : [
        {
            "byteLength" : 149628,
            "uri" : "data:application/octet-stream;base64,"
        }
    ]
}
