<svg width="52" height="52" viewBox="0 0 52 52" fill="none" xmlns="http://www.w3.org/2000/svg">
<path fill-rule="evenodd" clip-rule="evenodd" d="M15.8361 5.587C9.6351 10.017 8.0041 11.727 7.5201 14.309C6.9291 17.458 8.1341 22.335 9.7381 23.288C10.1851 23.553 13.8031 18.422 17.7801 11.885C21.7561 5.348 24.6811 0.017 24.2801 0.039C23.8781 0.06 20.0791 2.557 15.8361 5.587ZM33.8361 10.25C43.0711 24.109 45.1601 27.64 46.6321 31.882L47.8861 35.5L48.9681 32.685C51.3851 26.396 49.5161 17.294 44.7521 12.149C42.6061 9.831 28.7041 0 27.5731 0C27.2611 0 30.0791 4.612 33.8361 10.25ZM3.1321 19.315C0.191096 26.968 3.1341 36.521 10.1751 42.174C15.2381 46.24 23.6381 52 24.5031 52C24.8281 52 22.0211 47.388 18.2641 41.75C9.0291 27.891 6.9401 24.36 5.4681 20.118L4.2141 16.5L3.1321 19.315ZM34.3201 40.111C30.3441 46.65 27.3451 52 27.6571 52C27.9681 52 31.6031 49.663 35.7351 46.807C43.7281 41.282 45.5551 38.507 44.5901 33.361C43.3391 26.695 41.9051 27.637 34.3201 40.111Z" fill="#0C0A0E"/>
</svg>
