<svg width="57" height="53" viewBox="0 0 57 53" fill="none" xmlns="http://www.w3.org/2000/svg">
<g clip-path="url(#clip0_31_660)">
<path fill-rule="evenodd" clip-rule="evenodd" d="M20.0643 7.71749V7.88509H20.2518L23.4653 15.3444L6.23783 2.5581L20.0643 7.71749ZM20.711 6.7906H35.2663L52.8747 0.219984C52.9228 0.193272 52.9743 0.174167 53.0275 0.162977L53.4616 0.000976562L53.633 0.460401C53.6432 0.481477 53.6521 0.503322 53.6596 0.525838L53.6766 0.577019L53.8442 1.02641L53.824 1.03398C55.516 6.41308 55.8019 12.1393 54.6501 17.6654L54.6469 17.68L54.6451 17.6872L54.6418 17.6998L52.2014 26.5152L56.0994 38.0211L56.1225 38.0278L56.1129 38.0607L56.1331 38.1204L56.0912 38.1346L54.5962 43.2396C53.9762 45.3572 52.5484 47.1462 50.6209 48.2203C48.6935 49.2944 46.421 49.5676 44.2939 48.9808L39.6098 47.6924L37.42 49.4841C37.413 49.4898 37.4059 49.4953 37.3986 49.5006L37.3848 49.5105L32.4815 52.9035C32.39 52.9668 32.2813 53.0007 32.1701 53.0007H23.7862C23.6746 53.0007 23.5656 52.9665 23.4739 52.9028L18.5924 49.5099C18.5807 49.5017 18.5693 49.4931 18.5582 49.4841L16.3707 47.6943L11.6884 48.9816C9.56136 49.5689 7.28825 49.2961 5.36075 48.2219C3.43311 47.1477 2.00536 45.3584 1.38587 43.2403L1.38187 43.2267L0.000976562 38.0043L0.098088 37.9787L3.77497 26.5283L1.33363 17.7171C1.33046 17.7057 1.32766 17.6941 1.32524 17.6825C0.174207 12.1509 0.462538 6.41938 2.1585 1.03588L2.13311 1.02641L2.51575 0.000976562L20.711 6.7906ZM35.7256 7.88509H35.9127V7.71763L49.6932 2.57537L32.5229 15.3193L35.7256 7.88509ZM34.5338 7.88509L31.2511 15.505C31.2235 15.5692 31.2084 15.6381 31.2066 15.708L30.891 28.4376L30.858 28.4389L30.8781 28.9691C30.8782 28.9763 30.8784 28.9834 30.8787 28.9906L30.8794 29.0024L31.4635 44.3804H24.8178L25.2052 29.1091L25.2349 28.4428L25.1917 28.4409L24.7706 15.7035C24.7683 15.6351 24.7533 15.5678 24.7262 15.505L21.4435 7.88509H34.5338ZM54.8871 37.8537L51.2011 26.9734L48.0923 26.0645C42.7035 24.4914 37.7032 21.8087 33.4126 18.1887L33.4119 18.1881L32.2641 17.2164L31.9871 28.3878C32.2864 28.3709 32.6894 28.3465 33.1706 28.3134C34.2562 28.2388 35.7377 28.1202 37.3228 27.9441C38.9095 27.7679 40.5921 27.5349 42.0826 27.2327C43.5882 26.9274 44.843 26.5618 45.6093 26.1409L46.0889 25.8774L46.6159 26.8367L46.1362 27.1002C45.4345 27.4857 44.4581 27.8043 43.3612 28.0704L39.1129 33.765L39.0824 33.7422C39.0133 33.8331 38.9159 33.9023 38.8013 33.9361L32.4138 35.8164C32.3545 35.8339 32.2939 35.8409 32.2343 35.8381L32.3035 37.6582L54.8871 37.8537ZM32.5777 44.8781L32.3451 38.7531L54.7129 38.9467L53.5458 42.9321C53.0065 44.774 51.7646 46.33 50.0882 47.2642C48.4117 48.1985 46.4347 48.436 44.5846 47.9256L39.0988 46.4167L39.0363 46.6441L33.0435 48.2688L32.5777 44.8781ZM37.4437 29.0319C38.8542 28.8753 40.3537 28.6728 41.739 28.4145L38.5076 32.7459L36.2996 31.7377C35.654 31.4432 34.9186 31.4138 34.2516 31.656C33.5846 31.8982 33.0393 32.3926 32.7331 33.0327L32.1723 34.205L31.993 29.4837C32.3012 29.4665 32.729 29.4408 33.2456 29.4053C34.3415 29.3301 35.8389 29.2102 37.4437 29.0319ZM24.79 45.4749H31.5051L31.5059 45.4948L31.5574 45.4928L31.9583 48.4118H24.0694L24.6969 45.4857L24.7897 45.4881L24.79 45.4749ZM33.1331 49.5063H32.6152C32.5957 49.5073 32.5762 49.5073 32.5568 49.5063H23.4213C23.4019 49.5073 23.3825 49.5073 23.363 49.5063H22.8449V49.3784L18.8258 48.2888L19.2347 48.6234L23.9577 51.9062H31.9992L36.7439 48.623L37.1524 48.2888L33.1331 49.3785V49.5063ZM24.0948 28.3875L23.7243 17.1788L22.347 18.3209C18.1291 21.898 13.1989 24.5375 7.88326 26.0642L7.88075 26.065L4.77649 26.9892L1.29131 37.8427L23.8935 37.6557L23.9409 35.7872C23.8226 35.8424 23.6858 35.8547 23.5554 35.8164L17.1745 33.9448C17.0573 33.9104 16.958 33.839 16.8886 33.7452L16.8619 33.7651L12.5899 28.0361C11.5491 27.7771 10.625 27.4694 9.95309 27.1005L9.47337 26.8372L10.0001 25.8777L10.4798 26.1411C11.0988 26.4809 12.0371 26.7848 13.1693 27.05L13.2018 27.0257L13.2305 27.0642C13.4801 27.122 13.7389 27.178 14.0057 27.232C15.496 27.5341 17.1788 27.7672 18.7656 27.9436C20.3509 28.1198 21.8326 28.2386 22.9184 28.3134C23.3958 28.3462 23.7962 28.3706 24.0948 28.3875ZM14.2185 28.3891L17.4722 32.7525L19.6757 31.7463C20.3213 31.4518 21.0567 31.4225 21.7236 31.6646C22.3906 31.9068 22.9359 32.4011 23.2422 33.0412L23.9718 34.5704L24.1009 29.4841C23.7922 29.4668 23.3625 29.441 22.8432 29.4053C21.7472 29.3298 20.2495 29.2098 18.6446 29.0314C17.1895 28.8696 15.6398 28.6592 14.2185 28.3891ZM23.8658 38.7505L1.37961 38.9365L2.43832 42.9398C2.97818 44.779 4.21899 46.3327 5.89354 47.2659C7.57012 48.2002 9.54694 48.4375 11.397 47.9266L16.3119 46.5754C16.3382 46.5659 16.3653 46.5584 16.3929 46.5531L16.8856 46.4176L16.9483 46.6458L22.9782 48.2806L23.7106 44.8648L23.8658 38.7505ZM18.8912 33.3077L20.1299 32.7421C20.5145 32.5667 20.9528 32.5492 21.3501 32.6934C21.7474 32.8377 22.0724 33.1324 22.2548 33.5136L22.688 34.4214L18.8912 33.3077ZM22.9971 16.3599L3.12582 1.61137C1.55596 6.73896 1.30203 12.1837 2.39318 17.4421L4.72616 25.8622L7.57867 25.0129C12.7471 23.5289 17.5407 20.9625 21.6414 17.4842L21.6461 17.4803L22.9971 16.3599ZM34.6252 32.6848C35.0225 32.5405 35.4606 32.558 35.8452 32.7334L37.0861 33.3L33.2829 34.4196L33.7204 33.505C33.9029 33.1236 34.2278 32.8291 34.6252 32.6848ZM34.1184 17.3522L32.9514 16.3643L52.8518 1.59409C54.422 6.72168 54.6751 12.1667 53.5822 17.4249L51.2506 25.8476L48.3993 25.0139L48.399 25.0139C43.1567 23.4835 38.2924 20.8738 34.1184 17.3522Z" fill="white"/>
</g>
<defs>
<clipPath id="clip0_31_660">
<rect width="56.1325" height="53" fill="white"/>
</clipPath>
</defs>
</svg>
