<svg width="52" height="52" viewBox="0 0 52 52" fill="none" xmlns="http://www.w3.org/2000/svg">
<g clip-path="url(#clip0_7_4)">
<path d="M45.2391 16.2231C45.269 16.6556 45.269 17.0882 45.269 17.5247C45.269 30.8253 35.1435 46.165 16.6287 46.165V46.157C11.1594 46.165 5.80363 44.5983 1.19934 41.6444C1.99463 41.7401 2.7939 41.7879 3.59517 41.7899C8.12771 41.7939 12.5307 40.2731 16.0965 37.4726C11.7892 37.3909 8.0121 34.5825 6.6926 30.4825C8.20145 30.7735 9.75615 30.7137 11.2371 30.3091C6.54112 29.3603 3.16264 25.2344 3.16264 20.4427V20.3152C4.56187 21.0945 6.12853 21.527 7.73106 21.5749C3.30815 18.6189 1.9448 12.735 4.61569 8.13472C9.72625 14.4233 17.2665 18.2462 25.3609 18.6508C24.5497 15.1548 25.6579 11.4913 28.273 9.03365C32.3272 5.22265 38.7034 5.41798 42.5144 9.47016C44.7687 9.02568 46.9293 8.1985 48.9066 7.0265C48.1552 9.35655 46.5825 11.3358 44.4817 12.5935C46.4769 12.3583 48.4262 11.8241 50.262 11.0089C48.9106 13.034 47.2084 14.798 45.2391 16.2231Z" fill="#0C0A0E"/>
</g>
<defs>
<clipPath id="clip0_7_4">
<rect width="49.4314" height="40.6613" fill="white" transform="translate(1 6)"/>
</clipPath>
</defs>
</svg>
