<svg width="1440" height="644" viewBox="0 0 1440 644" fill="none" xmlns="http://www.w3.org/2000/svg">
<rect width="1440" height="644" fill="white"/>
<path d="M1219.52 560.096C1241.96 557.425 1260.43 552.078 1274.91 544.037L1274.92 544.03C1289.4 535.448 1300.14 523.641 1307.11 508.617C1314.62 493.059 1318.36 472.71 1318.36 447.6C1318.36 423.553 1314.36 404.261 1306.3 389.76C1298.25 374.742 1286.72 363.205 1271.7 355.159C1256.7 347.125 1238.78 341.778 1217.93 339.105C1197.1 335.901 1173.88 334.3 1148.26 334.3H1003.46H1002.96V334.8V563.6V564.1H1003.46H1141.86C1171.74 564.1 1197.63 562.766 1219.52 560.096ZM1219.52 560.096L1219.46 559.6M1219.52 560.096C1219.52 560.096 1219.52 560.096 1219.52 560.096L1219.46 559.6M1219.46 559.6C1197.6 562.267 1171.73 563.6 1141.86 563.6H1003.96L1305.86 390C1313.86 404.4 1317.86 423.6 1317.86 447.6C1317.86 472.667 1314.13 492.933 1306.66 508.4C1299.73 523.333 1289.06 535.067 1274.66 543.6C1260.26 551.6 1241.86 556.933 1219.46 559.6ZM114.4 564.1H422.7V609.5H60.5V34.5H113.9V563.6V564.1H114.4ZM552.831 334.8V609.5H499.431V34.5H869.631V79.9H553.331H552.831V80.4V288.4V288.9H553.331H840.831V334.3H553.331H552.831V334.8ZM1002.96 288.4V288.9H1003.46H1141.06C1169.35 288.9 1193.13 286.498 1212.38 281.685C1231.63 276.874 1247.17 269.916 1258.97 260.796L1258.98 260.787C1270.78 251.135 1279.1 239.596 1283.93 226.174C1289.29 212.242 1291.96 196.448 1291.96 178.8C1291.96 160.619 1289.02 145.343 1283.12 132.992C1277.21 120.095 1267.8 109.887 1254.92 102.372C1242.05 94.3278 1225.18 88.713 1204.35 85.5069C1184.04 81.7671 1158.94 79.9 1129.06 79.9H1003.46H1002.96V80.4V288.4ZM949.562 609.5V34.5H1157.06C1190.63 34.5 1219.38 37.9637 1243.32 44.8804C1267.27 51.799 1286.67 61.637 1301.54 74.3797L1301.54 74.3852C1316.95 87.1322 1328.09 102.529 1335 120.579L1335 120.583C1341.9 138.118 1345.36 157.521 1345.36 178.8C1345.36 199.022 1342.7 216.561 1337.39 231.426C1332.08 245.779 1325.17 257.992 1316.68 268.074C1308.19 277.625 1298.38 285.318 1287.23 291.155C1276.61 296.466 1265.46 300.184 1253.77 302.308L1253.36 302.383V302.8V304.4V304.832L1253.79 304.895C1293.7 310.748 1323.16 326.432 1342.26 351.9L1342.27 351.905C1361.92 377.402 1371.76 409.289 1371.76 447.6C1371.76 477.415 1366.97 502.673 1357.41 523.39L1357.4 523.4C1348.37 544.13 1335.62 560.86 1319.16 573.605C1302.69 586.355 1282.75 595.661 1259.35 601.513C1236.46 606.837 1211.43 609.5 1184.26 609.5H949.562Z" stroke="black"/>
<path d="M147.007 36.4814H149.644V58H147.007V36.4814ZM160.146 41.96C161.26 41.96 162.339 42.2236 163.384 42.751C164.429 43.2686 165.225 43.9424 165.771 44.7725C166.299 45.5635 166.65 46.4863 166.826 47.541C166.982 48.2637 167.061 49.416 167.061 50.998H155.562C155.61 52.5898 155.986 53.8691 156.689 54.8359C157.393 55.793 158.481 56.2715 159.956 56.2715C161.333 56.2715 162.432 55.8174 163.252 54.9092C163.721 54.3818 164.053 53.7715 164.248 53.0781H166.841C166.772 53.6543 166.543 54.2988 166.152 55.0117C165.771 55.7148 165.342 56.291 164.863 56.7402C164.062 57.5215 163.071 58.0488 161.89 58.3223C161.255 58.4785 160.537 58.5566 159.736 58.5566C157.783 58.5566 156.128 57.8486 154.771 56.4326C153.413 55.0068 152.734 53.0146 152.734 50.4561C152.734 47.9365 153.418 45.8906 154.785 44.3184C156.152 42.7461 157.939 41.96 160.146 41.96ZM164.351 48.9033C164.243 47.7607 163.994 46.8477 163.604 46.1641C162.881 44.8945 161.675 44.2598 159.985 44.2598C158.774 44.2598 157.759 44.6992 156.938 45.5781C156.118 46.4473 155.684 47.5557 155.635 48.9033H164.351ZM170.84 37.9316H173.506V42.3115H176.011V44.4648H173.506V54.7041C173.506 55.251 173.691 55.6172 174.062 55.8027C174.268 55.9102 174.609 55.9639 175.088 55.9639C175.215 55.9639 175.352 55.9639 175.498 55.9639C175.645 55.9541 175.815 55.9395 176.011 55.9199V58C175.708 58.0879 175.391 58.1514 175.059 58.1904C174.736 58.2295 174.385 58.249 174.004 58.249C172.773 58.249 171.938 57.9365 171.499 57.3115C171.06 56.6768 170.84 55.8564 170.84 54.8506V44.4648H168.716V42.3115H170.84V37.9316ZM179.219 42.7363C179.756 42.6484 180.161 42.3457 180.435 41.8281C180.718 41.3105 180.859 40.7148 180.859 40.041C180.859 39.9727 180.854 39.9141 180.845 39.8652C180.845 39.8066 180.835 39.7432 180.815 39.6748H179.219V36.4814H182.354V39.4258C182.354 40.6758 182.095 41.7402 181.577 42.6191C181.06 43.4883 180.273 43.9863 179.219 44.1133V42.7363ZM186.382 53.0781C186.46 53.957 186.68 54.6309 187.041 55.0996C187.705 55.9492 188.857 56.374 190.498 56.374C191.475 56.374 192.334 56.1641 193.076 55.7441C193.818 55.3145 194.189 54.6553 194.189 53.7666C194.189 53.0928 193.892 52.5801 193.296 52.2285C192.915 52.0137 192.163 51.7646 191.04 51.4814L188.945 50.9541C187.607 50.6221 186.621 50.251 185.986 49.8408C184.854 49.1279 184.287 48.1416 184.287 46.8818C184.287 45.3975 184.819 44.1963 185.884 43.2783C186.958 42.3604 188.398 41.9014 190.205 41.9014C192.568 41.9014 194.272 42.5947 195.317 43.9814C195.972 44.8604 196.289 45.8076 196.27 46.8232H193.779C193.73 46.2275 193.521 45.6855 193.149 45.1973C192.544 44.5039 191.494 44.1572 190 44.1572C189.004 44.1572 188.247 44.3477 187.729 44.7285C187.222 45.1094 186.968 45.6123 186.968 46.2373C186.968 46.9209 187.305 47.4678 187.979 47.8779C188.369 48.1221 188.945 48.3369 189.707 48.5225L191.45 48.9473C193.345 49.4063 194.614 49.8506 195.259 50.2803C196.284 50.9541 196.797 52.0137 196.797 53.459C196.797 54.8555 196.265 56.0615 195.2 57.0771C194.146 58.0928 192.534 58.6006 190.366 58.6006C188.032 58.6006 186.377 58.0732 185.4 57.0186C184.434 55.9541 183.916 54.6406 183.848 53.0781H186.382ZM147.593 69.9238C147.632 68.8301 147.822 68.0293 148.164 67.5215C148.779 66.623 149.966 66.1738 151.724 66.1738C151.89 66.1738 152.061 66.1787 152.236 66.1885C152.412 66.1982 152.612 66.2129 152.837 66.2324V68.6348C152.563 68.6152 152.363 68.6055 152.236 68.6055C152.119 68.5957 152.007 68.5908 151.899 68.5908C151.099 68.5908 150.62 68.8008 150.464 69.2207C150.308 69.6309 150.229 70.6855 150.229 72.3848H152.837V74.4648H150.2V88H147.593V74.4648H145.41V72.3848H147.593V69.9238ZM159.941 66.4814V69.748L163.135 68.6348L163.721 70.2607L160.527 71.3008L162.505 74.0547L161.055 75.0947L159.136 72.2383L157.202 75.0947L155.708 74.0547L157.715 71.3008L154.492 70.2607L155.078 68.6348L158.242 69.7773V66.4814H159.941ZM171.631 66.4814V69.748L174.824 68.6348L175.41 70.2607L172.217 71.3008L174.194 74.0547L172.744 75.0947L170.825 72.2383L168.892 75.0947L167.397 74.0547L169.404 71.3008L166.182 70.2607L166.768 68.6348L169.932 69.7773V66.4814H171.631ZM183.32 66.4814V69.748L186.514 68.6348L187.1 70.2607L183.906 71.3008L185.884 74.0547L184.434 75.0947L182.515 72.2383L180.581 75.0947L179.087 74.0547L181.094 71.3008L177.871 70.2607L178.457 68.6348L181.621 69.7773V66.4814H183.32ZM190.352 72.3848H193.032V88H190.352V72.3848ZM190.352 66.4814H193.032V69.4697H190.352V66.4814ZM197.031 72.3115H199.536V74.5381C200.278 73.6201 201.064 72.9609 201.895 72.5605C202.725 72.1602 203.647 71.96 204.663 71.96C206.89 71.96 208.394 72.7363 209.175 74.2891C209.604 75.1387 209.819 76.3545 209.819 77.9365V88H207.139V78.1123C207.139 77.1553 206.997 76.3838 206.714 75.7979C206.245 74.8213 205.396 74.333 204.165 74.333C203.54 74.333 203.027 74.3965 202.627 74.5234C201.904 74.7383 201.27 75.168 200.723 75.8125C200.283 76.3301 199.995 76.8672 199.858 77.4238C199.731 77.9707 199.668 78.7568 199.668 79.7822V88H197.031V72.3115ZM219.268 72.0332C220.498 72.0332 221.572 72.3359 222.49 72.9414C222.988 73.2832 223.496 73.7813 224.014 74.4355V72.458H226.445V86.7256C226.445 88.7178 226.152 90.29 225.566 91.4424C224.473 93.5713 222.407 94.6357 219.37 94.6357C217.681 94.6357 216.26 94.2549 215.107 93.4932C213.955 92.7412 213.311 91.5596 213.174 89.9482H215.854C215.981 90.6514 216.235 91.1934 216.616 91.5742C217.212 92.1602 218.149 92.4531 219.429 92.4531C221.45 92.4531 222.773 91.7402 223.398 90.3145C223.77 89.4746 223.94 87.9756 223.911 85.8174C223.384 86.6182 222.749 87.2139 222.007 87.6045C221.265 87.9951 220.283 88.1904 219.062 88.1904C217.363 88.1904 215.874 87.5898 214.595 86.3887C213.325 85.1777 212.69 83.1807 212.69 80.3975C212.69 77.7705 213.33 75.7197 214.609 74.2451C215.898 72.7705 217.451 72.0332 219.268 72.0332ZM224.014 80.0898C224.014 78.1465 223.613 76.7061 222.812 75.7686C222.012 74.8311 220.991 74.3623 219.751 74.3623C217.896 74.3623 216.626 75.2314 215.942 76.9697C215.581 77.8975 215.4 79.1133 215.4 80.6172C215.4 82.3848 215.757 83.7324 216.47 84.6602C217.192 85.5781 218.159 86.0371 219.37 86.0371C221.265 86.0371 222.598 85.1826 223.369 83.4736C223.799 82.5068 224.014 81.3789 224.014 80.0898ZM146.729 96.4082H149.292V104.216C149.868 103.464 150.557 102.893 151.357 102.502C152.158 102.102 153.027 101.901 153.965 101.901C155.918 101.901 157.5 102.575 158.711 103.923C159.932 105.261 160.542 107.238 160.542 109.855C160.542 112.336 159.941 114.396 158.74 116.037C157.539 117.678 155.874 118.498 153.745 118.498C152.554 118.498 151.548 118.21 150.728 117.634C150.239 117.292 149.717 116.745 149.16 115.993V118H146.729V96.4082ZM153.584 116.169C155.01 116.169 156.074 115.603 156.777 114.47C157.49 113.337 157.847 111.843 157.847 109.987C157.847 108.337 157.49 106.97 156.777 105.886C156.074 104.802 155.034 104.26 153.657 104.26C152.456 104.26 151.401 104.704 150.493 105.593C149.595 106.481 149.146 107.946 149.146 109.987C149.146 111.462 149.331 112.658 149.702 113.576C150.396 115.305 151.689 116.169 153.584 116.169ZM166.27 102.312V112.727C166.27 113.527 166.396 114.182 166.65 114.689C167.119 115.627 167.993 116.096 169.272 116.096C171.108 116.096 172.358 115.275 173.022 113.635C173.384 112.756 173.564 111.55 173.564 110.017V102.312H176.201V118H173.711L173.74 115.686C173.398 116.281 172.974 116.784 172.466 117.194C171.46 118.015 170.239 118.425 168.804 118.425C166.567 118.425 165.044 117.678 164.233 116.184C163.794 115.383 163.574 114.313 163.574 112.976V102.312H166.27ZM180.332 102.385H183.013V118H180.332V102.385ZM180.332 96.4814H183.013V99.4697H180.332V96.4814ZM187.085 96.4814H189.722V118L187.085 118V96.4814ZM195.361 110.339C195.361 112.019 195.718 113.425 196.431 114.558C197.144 115.69 198.286 116.257 199.858 116.257C201.079 116.257 202.08 115.734 202.861 114.689C203.652 113.635 204.048 112.126 204.048 110.163C204.048 108.181 203.643 106.716 202.832 105.769C202.021 104.812 201.021 104.333 199.829 104.333C198.501 104.333 197.422 104.841 196.592 105.856C195.771 106.872 195.361 108.366 195.361 110.339ZM199.331 102.033C200.532 102.033 201.538 102.287 202.349 102.795C202.817 103.088 203.35 103.601 203.945 104.333V96.4082H206.479V118H204.106V115.817C203.491 116.784 202.764 117.482 201.924 117.912C201.084 118.342 200.122 118.557 199.038 118.557C197.29 118.557 195.776 117.824 194.497 116.359C193.218 114.885 192.578 112.927 192.578 110.485C192.578 108.2 193.159 106.223 194.321 104.553C195.493 102.873 197.163 102.033 199.331 102.033Z" fill="black"/>
<path d="M147.461 157.932H150.127V162.312H152.632V164.465H150.127V174.704C150.127 175.251 150.312 175.617 150.684 175.803C150.889 175.91 151.23 175.964 151.709 175.964C151.836 175.964 151.973 175.964 152.119 175.964C152.266 175.954 152.437 175.939 152.632 175.92V178C152.329 178.088 152.012 178.151 151.68 178.19C151.357 178.229 151.006 178.249 150.625 178.249C149.395 178.249 148.56 177.937 148.12 177.312C147.681 176.677 147.461 175.856 147.461 174.851V164.465H145.337V162.312H147.461V157.932ZM155.283 156.408H157.92V164.436C158.545 163.645 159.106 163.088 159.604 162.766C160.454 162.209 161.514 161.931 162.783 161.931C165.059 161.931 166.602 162.727 167.412 164.318C167.852 165.188 168.071 166.394 168.071 167.937V178H165.361V168.112C165.361 166.96 165.215 166.115 164.922 165.578C164.443 164.719 163.545 164.289 162.227 164.289C161.133 164.289 160.142 164.665 159.253 165.417C158.364 166.169 157.92 167.59 157.92 169.68V178H155.283V156.408ZM171.982 162.385H174.663V178H171.982V162.385ZM171.982 156.481H174.663V159.47H171.982V156.481ZM180.229 173.078C180.308 173.957 180.527 174.631 180.889 175.1C181.553 175.949 182.705 176.374 184.346 176.374C185.322 176.374 186.182 176.164 186.924 175.744C187.666 175.314 188.037 174.655 188.037 173.767C188.037 173.093 187.739 172.58 187.144 172.229C186.763 172.014 186.011 171.765 184.888 171.481L182.793 170.954C181.455 170.622 180.469 170.251 179.834 169.841C178.701 169.128 178.135 168.142 178.135 166.882C178.135 165.397 178.667 164.196 179.731 163.278C180.806 162.36 182.246 161.901 184.053 161.901C186.416 161.901 188.12 162.595 189.165 163.981C189.819 164.86 190.137 165.808 190.117 166.823H187.627C187.578 166.228 187.368 165.686 186.997 165.197C186.392 164.504 185.342 164.157 183.848 164.157C182.852 164.157 182.095 164.348 181.577 164.729C181.069 165.109 180.815 165.612 180.815 166.237C180.815 166.921 181.152 167.468 181.826 167.878C182.217 168.122 182.793 168.337 183.555 168.522L185.298 168.947C187.192 169.406 188.462 169.851 189.106 170.28C190.132 170.954 190.645 172.014 190.645 173.459C190.645 174.855 190.112 176.062 189.048 177.077C187.993 178.093 186.382 178.601 184.214 178.601C181.88 178.601 180.225 178.073 179.248 177.019C178.281 175.954 177.764 174.641 177.695 173.078H180.229ZM147.461 187.932H150.127V192.312H152.632V194.465H150.127V204.704C150.127 205.251 150.312 205.617 150.684 205.803C150.889 205.91 151.23 205.964 151.709 205.964C151.836 205.964 151.973 205.964 152.119 205.964C152.266 205.954 152.437 205.939 152.632 205.92V208C152.329 208.088 152.012 208.151 151.68 208.19C151.357 208.229 151.006 208.249 150.625 208.249C149.395 208.249 148.56 207.937 148.12 207.312C147.681 206.677 147.461 205.856 147.461 204.851V194.465H145.337V192.312H147.461V187.932ZM161.509 206.301C163.257 206.301 164.453 205.642 165.098 204.323C165.752 202.995 166.079 201.521 166.079 199.899C166.079 198.435 165.845 197.243 165.376 196.325C164.634 194.88 163.354 194.157 161.538 194.157C159.927 194.157 158.755 194.772 158.022 196.003C157.29 197.233 156.924 198.718 156.924 200.456C156.924 202.126 157.29 203.518 158.022 204.631C158.755 205.744 159.917 206.301 161.509 206.301ZM161.611 191.857C163.633 191.857 165.342 192.531 166.738 193.879C168.135 195.227 168.833 197.209 168.833 199.826C168.833 202.355 168.218 204.445 166.987 206.096C165.757 207.746 163.848 208.571 161.26 208.571C159.102 208.571 157.388 207.844 156.118 206.389C154.849 204.924 154.214 202.961 154.214 200.5C154.214 197.863 154.883 195.764 156.221 194.201C157.559 192.639 159.355 191.857 161.611 191.857ZM177.52 192.033C178.75 192.033 179.824 192.336 180.742 192.941C181.24 193.283 181.748 193.781 182.266 194.436V192.458H184.697V206.726C184.697 208.718 184.404 210.29 183.818 211.442C182.725 213.571 180.659 214.636 177.622 214.636C175.933 214.636 174.512 214.255 173.359 213.493C172.207 212.741 171.562 211.56 171.426 209.948H174.106C174.233 210.651 174.487 211.193 174.868 211.574C175.464 212.16 176.401 212.453 177.681 212.453C179.702 212.453 181.025 211.74 181.65 210.314C182.021 209.475 182.192 207.976 182.163 205.817C181.636 206.618 181.001 207.214 180.259 207.604C179.517 207.995 178.535 208.19 177.314 208.19C175.615 208.19 174.126 207.59 172.847 206.389C171.577 205.178 170.942 203.181 170.942 200.397C170.942 197.771 171.582 195.72 172.861 194.245C174.15 192.771 175.703 192.033 177.52 192.033ZM182.266 200.09C182.266 198.146 181.865 196.706 181.064 195.769C180.264 194.831 179.243 194.362 178.003 194.362C176.147 194.362 174.878 195.231 174.194 196.97C173.833 197.897 173.652 199.113 173.652 200.617C173.652 202.385 174.009 203.732 174.722 204.66C175.444 205.578 176.411 206.037 177.622 206.037C179.517 206.037 180.85 205.183 181.621 203.474C182.051 202.507 182.266 201.379 182.266 200.09ZM195.215 191.96C196.328 191.96 197.407 192.224 198.452 192.751C199.497 193.269 200.293 193.942 200.84 194.772C201.367 195.563 201.719 196.486 201.895 197.541C202.051 198.264 202.129 199.416 202.129 200.998H190.63C190.679 202.59 191.055 203.869 191.758 204.836C192.461 205.793 193.55 206.271 195.024 206.271C196.401 206.271 197.5 205.817 198.32 204.909C198.789 204.382 199.121 203.771 199.316 203.078H201.909C201.841 203.654 201.611 204.299 201.221 205.012C200.84 205.715 200.41 206.291 199.932 206.74C199.131 207.521 198.14 208.049 196.958 208.322C196.323 208.479 195.605 208.557 194.805 208.557C192.852 208.557 191.196 207.849 189.839 206.433C188.481 205.007 187.803 203.015 187.803 200.456C187.803 197.937 188.486 195.891 189.854 194.318C191.221 192.746 193.008 191.96 195.215 191.96ZM199.419 198.903C199.312 197.761 199.062 196.848 198.672 196.164C197.949 194.895 196.743 194.26 195.054 194.26C193.843 194.26 192.827 194.699 192.007 195.578C191.187 196.447 190.752 197.556 190.703 198.903H199.419ZM205.908 187.932H208.574V192.312H211.079V194.465H208.574V204.704C208.574 205.251 208.76 205.617 209.131 205.803C209.336 205.91 209.678 205.964 210.156 205.964C210.283 205.964 210.42 205.964 210.566 205.964C210.713 205.954 210.884 205.939 211.079 205.92V208C210.776 208.088 210.459 208.151 210.127 208.19C209.805 208.229 209.453 208.249 209.072 208.249C207.842 208.249 207.007 207.937 206.567 207.312C206.128 206.677 205.908 205.856 205.908 204.851V194.465H203.784V192.312H205.908V187.932ZM213.73 186.408H216.367V194.436C216.992 193.645 217.554 193.088 218.052 192.766C218.901 192.209 219.961 191.931 221.23 191.931C223.506 191.931 225.049 192.727 225.859 194.318C226.299 195.188 226.519 196.394 226.519 197.937V208H223.809V198.112C223.809 196.96 223.662 196.115 223.369 195.578C222.891 194.719 221.992 194.289 220.674 194.289C219.58 194.289 218.589 194.665 217.7 195.417C216.812 196.169 216.367 197.59 216.367 199.68V208H213.73V186.408ZM236.963 191.96C238.076 191.96 239.155 192.224 240.2 192.751C241.245 193.269 242.041 193.942 242.588 194.772C243.115 195.563 243.467 196.486 243.643 197.541C243.799 198.264 243.877 199.416 243.877 200.998L232.378 200.998C232.427 202.59 232.803 203.869 233.506 204.836C234.209 205.793 235.298 206.271 236.772 206.271C238.149 206.271 239.248 205.817 240.068 204.909C240.537 204.382 240.869 203.771 241.064 203.078H243.657C243.589 203.654 243.359 204.299 242.969 205.012C242.588 205.715 242.158 206.291 241.68 206.74C240.879 207.521 239.888 208.049 238.706 208.322C238.071 208.479 237.354 208.557 236.553 208.557C234.6 208.557 232.944 207.849 231.587 206.433C230.229 205.007 229.551 203.015 229.551 200.456C229.551 197.937 230.234 195.891 231.602 194.318C232.969 192.746 234.756 191.96 236.963 191.96ZM241.167 198.903C241.06 197.761 240.811 196.848 240.42 196.164C239.697 194.895 238.491 194.26 236.802 194.26C235.591 194.26 234.575 194.699 233.755 195.578C232.935 196.447 232.5 197.556 232.451 198.903L241.167 198.903ZM247.202 192.312H249.707V195.021C249.912 194.494 250.415 193.854 251.216 193.103C252.017 192.341 252.939 191.96 253.984 191.96C254.033 191.96 254.116 191.965 254.233 191.975C254.351 191.984 254.551 192.004 254.834 192.033V194.816C254.678 194.787 254.531 194.768 254.395 194.758C254.268 194.748 254.126 194.743 253.97 194.743C252.642 194.743 251.621 195.173 250.908 196.032C250.195 196.882 249.839 197.863 249.839 198.977V208H247.202V192.312Z" fill="#C1C1C1"/>
</svg>
